<?xml version="1.0" encoding="UTF-8" standalone="no" ?>
<!DOCTYPE svg PUBLIC "-//W3C//DTD SVG 1.1//EN" "http://www.w3.org/Graphics/SVG/1.1/DTD/svg11.dtd">
<svg xmlns="http://www.w3.org/2000/svg" xmlns:xlink="http://www.w3.org/1999/xlink" version="1.1" width="1080" height="1080" viewBox="0 0 1080 1080" xml:space="preserve">
<desc>Created with Fabric.js 5.2.4</desc>
<defs>
</defs>
<g transform="matrix(1 0 0 1 540 540)" id="6bbf410a-f895-4ce0-9046-aef61fe984fa"  >
<rect style="stroke: none; stroke-width: 1; stroke-dasharray: none; stroke-linecap: butt; stroke-dashoffset: 0; stroke-linejoin: miter; stroke-miterlimit: 4; fill: rgb(255,255,255); fill-rule: nonzero; opacity: 1; visibility: hidden;" vector-effect="non-scaling-stroke"  x="-540" y="-540" rx="0" ry="0" width="1080" height="1080" />
</g>
<g transform="matrix(1 0 0 1 540 540)" id="63cb2201-a75f-41b4-903f-ffc0cb4f9676"  >
</g>
<g transform="matrix(1 0 0 1 540 540)"  >
<g style="" vector-effect="non-scaling-stroke"   >
		<g transform="matrix(1 0 0 1 0 0)"  >
<rect style="stroke: none; stroke-width: 1; stroke-dasharray: none; stroke-linecap: butt; stroke-dashoffset: 0; stroke-linejoin: miter; stroke-miterlimit: 4; fill: rgb(21,94,117); fill-rule: nonzero; opacity: 1; visibility: hidden;" vector-effect="non-scaling-stroke"  x="-540" y="-540" rx="0" ry="0" width="1080" height="1080" />
</g>
		<g transform="matrix(2.37 0 0 2.37 -0.01 0.01)"  >
<path style="stroke: rgb(0,0,0); stroke-width: 0; stroke-dasharray: none; stroke-linecap: butt; stroke-dashoffset: 0; stroke-linejoin: miter; stroke-miterlimit: 4; fill: rgb(21,94,117); fill-rule: nonzero; opacity: 1;" vector-effect="non-scaling-stroke"  transform=" translate(3.89, -202.53)" d="M 0 0 C 4.0646969 2.08633428 5.73714326 3.41779229 7.63916016 7.63061523 C 8.08702278 9.12075113 8.51038725 10.61838546 8.9140625 12.12109375 C 9.15532867 12.94709579 9.39659485 13.77309784 9.64517212 14.62413025 C 10.45254419 17.41018317 11.22661092 20.20433692 12 23 C 12.5814141 25.04618919 13.16447033 27.09191237 13.74902344 29.13720703 C 15.96151406 36.90792932 18.16313813 44.68190191 20.31738281 52.46899414 C 24.21452545 66.52683342 28.51524181 79.91061157 35 93 C 35.45656982 93.92674278 35.45656982 93.92674278 35.92236328 94.87220764 C 41.98414776 107.09448818 49.75100686 117.93235088 59.046875 127.89453125 C 60.64060724 129.61257461 62.11458926 131.34865335 63.5625 133.1875 C 85.54671984 158.5539075 119.42918945 170.44056222 150.625 179.1875 C 153.0576495 179.87829843 155.48994364 180.57034952 157.921875 181.26367188 C 159.10658386 181.60117462 160.29129272 181.93867737 161.51190186 182.28640747 C 166.0165863 183.571929 170.51967464 184.86299655 175.02258301 186.15472412 C 177.70942733 186.91750767 180.40151293 187.6564823 183.09667969 188.38916016 C 184.53086497 188.79626455 185.96480943 189.20421895 187.3984375 189.61328125 C 188.57841309 189.93723877 189.75838867 190.26119629 190.97412109 190.5949707 C 194.95065353 192.44142416 196.4641025 194.44596292 199 198 C 199.6640625 200.125 199.6640625 200.125 199.625 202 C 199.63789063 202.61875 199.65078125 203.2375 199.6640625 203.875 C 198.43943803 207.79379829 195.85876643 211.02357278 192.22869873 212.93048096 C 190.11050656 213.69754359 187.99052434 214.32362072 185.81640625 214.9140625 C 184.99491592 215.15532867 184.1734256 215.39659485 183.32704163 215.64517212 C 180.55715694 216.45201104 177.77945785 217.22682841 175 218 C 172.95523791 218.58185464 170.91081408 219.16489908 168.86669922 219.74902344 C 161.09446485 221.96076207 153.31930068 224.16280545 145.53100586 226.31738281 C 131.47314174 230.21453233 118.08944537 234.51532569 105 241 C 104.38235275 241.30424393 103.76470551 241.60848785 103.12834167 241.92195129 C 74.04756464 256.34314921 51.2481699 280.05259196 36.125 308.5625 C 35.69711182 309.36349121 35.26922363 310.16448242 34.82836914 310.98974609 C 28.41232583 323.49312411 24.42024486 336.65179876 20.65234375 350.1328125 C 20.46150711 350.81533773 20.27067047 351.49786297 20.0740509 352.20107079 C 18.27890076 358.6327677 16.49892147 365.06860298 14.73803711 371.50976562 C 13.76512295 375.0656656 12.77722065 378.61712191 11.7800312 382.16628647 C 11.40712481 383.50502245 11.03991316 384.8453595 10.67878532 386.18732071 C 7.18224188 399.17295572 7.18224188 399.17295572 2 404 C -1.18070237 405.59035119 -4.58330451 405.78937448 -8 405 C -13.47492854 401.26077104 -15.20310897 398.11646015 -16.9140625 391.81640625 C -17.15532867 390.99491592 -17.39659485 390.1734256 -17.64517212 389.32704163 C -18.45201104 386.55715694 -19.22682841 383.77945785 -20 381 C -20.58185464 378.95523791 -21.16489908 376.91081408 -21.74902344 374.86669922 C -23.96076207 367.09446485 -26.16280545 359.31930068 -28.31738281 351.53100586 C -32.21452545 337.47316658 -36.51524181 324.08938843 -43 311 C -43.30437988 310.38217148 -43.60875977 309.76434296 -43.92236328 309.12779236 C -49.98414776 296.90551182 -57.75100686 286.06764912 -67.046875 276.10546875 C -68.64060724 274.38742539 -70.11458926 272.65134665 -71.5625 270.8125 C -87.17307486 252.80029824 -111.3530645 239.71017835 -133.6875 232.29296875 C -134.44363586 232.04140518 -135.19977173 231.78984161 -135.9788208 231.53065491 C -143.19419662 229.1799336 -150.48719561 227.12477954 -157.796875 225.08984375 C -159.61665863 224.58242645 -159.61665863 224.58242645 -161.47320557 224.0647583 C -166.51640711 222.66177855 -171.56005739 221.26079638 -176.61035156 219.88354492 C -180.34317257 218.86193826 -184.07022619 217.82120661 -187.796875 216.77734375 C -188.93437195 216.47199203 -190.0718689 216.16664032 -191.24383545 215.85203552 C -197.30449563 214.13761322 -201.59533519 212.57533388 -206 208 C -207.59035119 204.81929763 -207.78937448 201.41669549 -207 198 C -203.26077104 192.52507146 -200.11646015 190.79689103 -193.81640625 189.0859375 C -192.99491592 188.84467133 -192.1734256 188.60340515 -191.32704163 188.35482788 C -188.55715694 187.54798896 -185.77945785 186.77317159 -183 186 C -180.95523791 185.41814536 -178.91081408 184.83510092 -176.86669922 184.25097656 C -169.09446485 182.03923793 -161.31930068 179.83719455 -153.53100586 177.68261719 C -139.47316658 173.78547455 -126.08938843 169.48475819 -113 163 C -112.07325722 162.54343018 -112.07325722 162.54343018 -111.12779236 162.07763672 C -98.90476943 156.01548405 -88.05216899 148.24847101 -78.09765625 138.94140625 C -76 137 -76 137 -72.9375 134.625 C -68.38207945 130.55419866 -64.75702236 125.80202196 -61 121 C -59.86304688 119.56914062 -59.86304688 119.56914062 -58.703125 118.109375 C -48.07284717 104.39998221 -39.76523596 88.78834958 -34.29296875 72.31640625 C -34.04140518 71.56047684 -33.78984161 70.80454742 -33.53065491 70.02571106 C -31.17605682 62.79803602 -29.12337355 55.49138021 -27.08984375 48.16796875 C -26.58242645 46.34463516 -26.58242645 46.34463516 -26.0647583 44.48446655 C -24.66120002 39.43037438 -23.25910938 34.37599944 -21.88354492 29.31420898 C -20.86312872 25.57363236 -19.82198936 21.83933978 -18.77734375 18.10546875 C -18.47199203 16.96281052 -18.16664032 15.82015228 -17.85203552 14.64286804 C -16.18886296 8.76296306 -14.95043276 4.74229444 -10 1 C -6.83350487 -0.58324757 -3.42541806 -0.64374236 0 0 Z" stroke-linecap="round" />
</g>
</g>
</g>
<g transform="matrix(NaN NaN NaN NaN 0 0)"  >
<g style=""   >
</g>
</g>
<g transform="matrix(NaN NaN NaN NaN 0 0)"  >
<g style=""   >
</g>
</g>
</svg>